<svg xmlns="http://www.w3.org/2000/svg" width="366.138" height="56.16" viewBox="0 0 366.138 56.16">
  <defs>
    <style>
      .cls-1 {
        fill: #e52428;
      }
    </style>
  </defs>
  <g id="nomics-seeklogo.com-2" transform="translate(-41.2 -186.796)">
    <path id="Path_30047" data-name="Path 30047" d="M170.018,238.9H159.9V194.24h10.118v6.577a19.053,19.053,0,0,1,15.611-7.516c10.191,0,16.189,6.866,16.189,17.49V238.9H191.7V212.742c0-6.794-3.614-10.407-9.107-10.407-7.589,0-12.5,6.794-12.5,16.984C170.018,219.391,170.018,238.9,170.018,238.9Zm38.377-22.26c0-13.949,8.962-23.344,22.26-23.344s22.26,9.323,22.26,23.344c0,13.877-8.962,23.2-22.26,23.2S208.4,230.521,208.4,216.644Zm34.185,0c0-8.6-4.915-14.382-11.925-14.382s-11.925,5.782-11.925,14.382c0,8.528,4.915,14.238,11.925,14.238s11.925-5.782,11.925-14.238Zm27.536,22.26H260V194.24h10.118v6.577a15.428,15.428,0,0,1,13.226-7.516,14.347,14.347,0,0,1,13.587,8.817A18.293,18.293,0,0,1,312.47,193.3c8.6,0,14.6,6.071,14.6,16.478v29.2H316.951V212.236c0-6.5-2.819-9.9-7.95-9.9-6.794,0-10.624,6.143-10.624,17.057v19.586H288.258V212.236c0-6.721-2.963-9.9-7.733-9.9-6.5,0-10.407,6.288-10.407,17.057Zm66.2-44.665h10.118V238.9H336.32Zm17.2,22.333c0-13.877,9.179-23.2,22.188-23.2,9.974,0,17.2,5.276,20.237,14.093l-9.4,3.9c-1.229-5.854-4.987-9.034-10.624-9.034-7.3,0-12.07,5.637-12.07,14.238,0,8.745,4.77,14.31,12.142,14.31,5.565,0,9.251-3.18,10.552-9.034l9.323,3.9c-3.252,9.179-10.263,14.093-20.02,14.093C362.7,239.844,353.521,230.521,353.521,216.572ZM401.366,227.2,410.545,223c.65,4.915,5.71,8.384,11.564,8.384,4.481,0,8.022-2.1,8.022-4.915,0-7.589-26.886-4.336-26.886-19.658,0-8.384,7.372-13.226,17.49-13.226,9.974,0,17.346,4.77,19.152,11.058l-9.685,4.192c-.289-3.686-4.192-6.794-9.757-6.794-4.047,0-7.155,1.735-7.155,4.12,0,7.227,26.958,3.9,26.958,19.875,0,8.095-7.155,13.8-18.43,13.8C410.762,239.844,403.1,234.857,401.366,227.2Z" transform="translate(-32.911 -1.803)"/>
    <g id="Group_123" data-name="Group 123" transform="translate(41.2 186.796)">
      <path id="Path_30048" data-name="Path 30048" class="cls-1" d="M53.776,186.8A12.724,12.724,0,0,0,41.2,199.591v30.5A12.8,12.8,0,0,0,63.027,239.2l8.673-8.673a12.758,12.758,0,0,0,25.513-.361v-30.5a12.8,12.8,0,0,0-21.827-9.106l-8.673,8.673A12.725,12.725,0,0,0,53.776,186.8Z" transform="translate(-41.2 -186.796)"/>
      <circle id="Ellipse_257" data-name="Ellipse 257" cx="12.792" cy="12.792" r="12.792" transform="translate(0 30.43)"/>
    </g>
  </g>
</svg>
